HIERARCHY
ROOT root
{
	OFFSET 0.000000 0.000000 0.000000
	CHANNELS 6 Xposition Yposition Zposition Zrotation Yrotation Xrotation
	JOINT lhip
	{
		OFFSET 0.058581 -0.082280 -0.017664
		CHANNELS 3 Zrotation Yrotation Xrotation
		JOINT lknee
		{
			OFFSET 0.043451 -0.386469 0.008037
			CHANNELS 3 Zrotation Yrotation Xrotation
			JOINT lankle
			{
				OFFSET -0.014790 -0.426874 -0.037428
				CHANNELS 3 Zrotation Yrotation Xrotation
				JOINT ltoe
				{
					OFFSET 0.041054 -0.060286 0.122042
					CHANNELS 3 Zrotation Yrotation Xrotation
					End Site
					{
						OFFSET 0.000000 0.000000 0.000000
					}
				}
			}
		}
	}
	JOINT rhip
	{
		OFFSET -0.060310 -0.090513 -0.013543
		CHANNELS 3 Zrotation Yrotation Xrotation
		JOINT rknee
		{
			OFFSET -0.043257 -0.383688 -0.004843
			CHANNELS 3 Zrotation Yrotation Xrotation
			JOINT rankle
			{
				OFFSET 0.019056 -0.420046 -0.034562
				CHANNELS 3 Zrotation Yrotation Xrotation
				JOINT rtoe
				{
					OFFSET -0.034840 -0.062106 0.130323
					CHANNELS 3 Zrotation Yrotation Xrotation
					End Site
					{
						OFFSET 0.000000 0.000000 0.000000
					}
				}
			}
		}
	}
	JOINT lowerback
	{
		OFFSET 0.004439 0.124404 -0.038385
		CHANNELS 3 Zrotation Yrotation Xrotation
		JOINT upperback
		{
			OFFSET 0.004488 0.137956 0.026820
			CHANNELS 3 Zrotation Yrotation Xrotation
			JOINT chest
			{
				OFFSET -0.002265 0.056032 0.002855
				CHANNELS 3 Zrotation Yrotation Xrotation
				JOINT lowerneck
				{
					OFFSET -0.013390 0.211636 -0.033468
					CHANNELS 3 Zrotation Yrotation Xrotation
					JOINT upperneck
					{
						OFFSET 0.010113 0.088937 0.050410
						CHANNELS 3 Zrotation Yrotation Xrotation
						End Site
						{
							OFFSET 0.000000 0.000000 0.000000
						}
					}
				}
				JOINT lclavicle
				{
					OFFSET 0.071702 0.114000 -0.018898
					CHANNELS 3 Zrotation Yrotation Xrotation
					JOINT lshoulder
					{
						OFFSET 0.122921 0.045205 -0.019046
						CHANNELS 3 Zrotation Yrotation Xrotation
						JOINT lelbow
						{
							OFFSET 0.255332 -0.015649 -0.022946
							CHANNELS 3 Zrotation Yrotation Xrotation
							JOINT lwrist
							{
								OFFSET 0.265709 0.012698 -0.007375
								CHANNELS 3 Zrotation Yrotation Xrotation
								End Site
								{
									OFFSET 0.000000 0.000000 0.000000
								}
							}
						}
					}
				}
				JOINT rclavicle
				{
					OFFSET -0.082954 0.112472 -0.023707
					CHANNELS 3 Zrotation Yrotation Xrotation
					JOINT rshoulder
					{
						OFFSET -0.113228 0.046853 -0.008472
						CHANNELS 3 Zrotation Yrotation Xrotation
						JOINT relbow
						{
							OFFSET -0.260127 -0.014369 -0.031269
							CHANNELS 3 Zrotation Yrotation Xrotation
							JOINT rwrist
							{
								OFFSET -0.269108 0.006794 -0.006027
								CHANNELS 3 Zrotation Yrotation Xrotation
								End Site
								{
									OFFSET 0.000000 0.000000 0.000000
								}
							}
						}
					}
				}
			}
		}
	}
}
MOTION
Frames: 8
Frame Time: 0.033333
-2.096979 0.777214 1.001345 97.038548 -0.522951 86.553532 -3.510681 -8.507704 -4.861635 -4.136095 -12.934632 10.698998 2.824840 5.740260 -10.380482 0.000000 -0.000000 0.000000 3.171294 1.840637 0.704249 -4.043268 -1.437044 13.953765 1.309542 -14.840498 -18.122691 0.000000 -0.000000 0.000000 -4.466626 4.450798 4.008032 3.466439 -2.317129 4.632291 1.751480 1.485402 -0.246189 11.786946 -12.462172 14.848834 9.716260 -13.111468 12.105407 -24.409063 -7.867911 5.971741 -54.049282 -11.055312 11.116809 3.148971 -15.987110 9.473680 -9.256589 -3.364503 0.224302 24.027440 12.724409 9.226267 57.276952 5.253086 13.717931 -8.206867 23.408507 9.319613 -3.608756 3.237220 -2.508998 
-2.094491 0.777554 1.001875 97.480014 -0.794891 86.232899 -4.040554 -8.297080 -4.048608 -3.842504 -13.516098 10.233872 2.597612 5.622250 -10.229863 0.000000 -0.000000 0.000000 2.762238 1.031880 1.632063 -4.173123 -1.805400 13.251706 1.746942 -14.227597 -17.963693 0.000000 -0.000000 0.000000 -4.670051 5.180983 3.404070 3.089689 -1.871106 5.313536 1.578687 1.589108 -0.567054 11.733145 -12.347996 14.406977 9.690047 -13.352889 11.538351 -24.611060 -7.367376 6.069434 -53.898105 -10.156852 11.315806 2.398929 -16.100250 10.080992 -8.780529 -3.522257 0.426753 24.200018 12.618888 9.249636 57.403963 5.128756 14.158392 -6.583265 23.535008 10.427691 -4.536749 3.430310 -2.978290 
-2.094669 0.777126 1.001958 98.665108 -0.556154 86.288787 -3.703773 -8.425447 -4.554044 -4.126620 -13.917059 10.920203 2.408990 4.904991 -10.416609 0.000000 -0.000000 0.000000 3.037245 0.478569 1.808260 -4.295943 -2.599728 12.863655 1.439249 -14.619985 -16.773050 0.000000 -0.000000 0.000000 -4.445426 5.133238 3.179107 2.832454 -1.868241 5.247294 1.432379 1.701506 -0.517564 11.513942 -12.346462 13.699163 9.772440 -13.367124 11.119508 -24.724948 -6.975872 6.244000 -54.200387 -9.383754 11.336419 2.024817 -15.968450 10.978799 -9.109680 -3.700076 0.852887 24.067890 12.454698 9.109029 57.643101 5.071185 14.381520 -5.037245 23.968361 12.432281 -3.778393 3.580208 -3.353827 
-2.093371 0.776209 1.002183 99.245739 -0.587970 86.127141 -3.634836 -8.290758 -4.380460 -4.361297 -14.400973 11.075688 2.390954 4.719379 -10.288948 0.000000 -0.000000 0.000000 2.996278 -0.259690 2.086091 -4.364712 -2.948613 12.782263 1.241577 -14.414193 -15.860788 0.000000 -0.000000 0.000000 -4.461109 5.222162 3.399572 2.376783 -1.751421 4.748964 1.289772 1.829068 -0.534361 11.427681 -11.919999 13.311117 9.849537 -12.944732 10.829690 -24.999514 -6.356312 6.134748 -54.127354 -8.159442 11.608336 1.171269 -15.823258 12.339607 -8.503164 -3.752270 1.431536 24.310782 12.368619 9.098044 57.734558 4.907650 14.864279 -3.538379 24.003599 13.807394 -4.224175 4.141229 -3.741887 
-2.092781 0.774987 1.002650 99.618778 -0.579826 85.613837 -3.559599 -8.167694 -3.800981 -4.573275 -14.854591 11.166745 2.226681 4.700113 -10.002396 0.000000 -0.000000 0.000000 3.165950 -0.331319 2.814328 -4.432725 -3.172461 12.656282 1.364171 -14.641909 -15.728497 0.000000 -0.000000 0.000000 -4.428735 5.142261 3.988123 1.985963 -1.557420 4.547467 1.146508 2.022892 -0.652529 11.306969 -11.933440 12.908789 9.937501 -12.849635 10.351237 -25.463451 -6.034388 6.125977 -54.014148 -7.191211 11.776110 0.307235 -15.628329 13.658602 -8.200084 -3.573424 1.956276 24.475741 12.495257 9.059219 57.660247 5.071229 14.849039 -2.715840 23.855587 14.523557 -5.140042 4.150518 -3.222497 
-2.091894 0.773518 1.002785 99.747155 -0.695581 85.244497 -3.577842 -7.905490 -3.317027 -4.597301 -14.916690 11.084479 2.023370 4.462478 -9.849262 0.000000 -0.000000 0.000000 3.070400 -0.653947 3.439425 -4.514872 -3.471037 12.368380 1.476040 -14.243787 -15.616852 0.000000 -0.000000 0.000000 -4.660718 5.566807 4.078761 1.731274 -1.292395 4.635247 1.094415 2.074314 -0.654383 11.419194 -11.809918 12.433937 10.038079 -12.876134 9.748717 -25.631217 -6.045403 6.165735 -54.408031 -6.732916 12.069576 -0.225026 -15.021164 14.726571 -8.860421 -3.549491 2.517343 24.168942 12.516163 8.891023 57.927821 4.802070 14.803062 -2.493185 23.720030 14.828580 -5.025893 4.327082 -3.442537 
-2.091520 0.772338 1.002845 99.950513 -0.776724 85.094510 -3.625717 -7.979812 -3.137654 -4.555818 -14.956205 11.063243 1.939345 4.330114 -9.987556 0.000000 -0.000000 0.000000 2.971230 -0.766995 3.512279 -4.419556 -3.822017 12.613517 1.549754 -14.073746 -15.737352 0.000000 -0.000000 0.000000 -4.680346 5.728307 3.940747 1.416334 -1.131166 4.730213 0.857574 2.079464 -0.716563 11.411034 -11.842469 11.958761 10.145229 -12.839128 9.489284 -25.836572 -6.148355 6.141027 -54.863488 -6.060517 12.274963 -0.191122 -14.942573 15.076970 -10.698157 -3.768249 2.894214 23.735542 12.683428 8.710206 58.285607 4.149085 14.836995 -2.509400 24.403236 15.607878 -1.084110 3.673611 -3.546365 
-2.090072 0.770856 1.003475 100.012401 -1.088517 84.641195 -3.966239 -7.445377 -2.276527 -4.367559 -15.490535 10.621303 1.735468 4.311697 -10.024047 0.000000 -0.000000 0.000000 2.603037 -1.565707 4.249359 -4.496707 -3.669121 12.297954 1.870844 -13.502896 -15.823592 0.000000 -0.000000 0.000000 -4.912091 6.017534 4.162544 0.911975 -0.897994 4.631335 0.812776 2.028818 -0.742151 11.317643 -11.957839 11.567038 10.253381 -12.990614 9.067501 -26.339031 -5.728811 5.933938 -54.665638 -5.915968 12.490247 -1.185320 -15.051746 15.650269 -9.151863 -3.643641 3.550694 24.197730 12.393840 8.774815 57.409092 4.233061 14.962501 -0.581385 24.387239 16.603655 -5.460611 4.930432 -2.002197 
